<svg xmlns="http://www.w3.org/2000/svg" width="38.453" height="38.453" viewBox="0 0 38.453 38.453"><defs><style>.a{fill:#fff;}</style></defs><path class="a" d="M35.706,17.357H23.346V5A2.747,2.747,0,0,0,20.6,2.25H17.853A2.747,2.747,0,0,0,15.107,5v12.36H2.747A2.747,2.747,0,0,0,0,20.1V22.85A2.747,2.747,0,0,0,2.747,25.6h12.36v12.36A2.747,2.747,0,0,0,17.853,40.7H20.6a2.747,2.747,0,0,0,2.747-2.747V25.6h12.36a2.747,2.747,0,0,0,2.747-2.747V20.1A2.747,2.747,0,0,0,35.706,17.357Z" transform="translate(0 -2.25)"/></svg>